<svg xmlns="http://www.w3.org/2000/svg" width="50" height="50">
	<path d="M5 4C3.35 4 2 5.36 2 7v36c0 1.64 1.35 3 3 3h40c1.65 0 3-1.35 3-3V11c0-1.65-1.35-3-3-3H18c.09 0-.03 0-.28-.28-.24-.28-.54-.75-.85-1.25-.32-.5-.65-1.04-1.06-1.5-.42-.48-1-.97-1.81-.97H5zm0 2h9c-.06 0 .06 0 .3.29.26.28.56.74.87 1.24.31.5.64 1.03 1.04 1.5s.97.97 1.79.97h27c.56 0 1 .44 1 1v2.19a2.94 2.94 0 0 0-1-.19H5c-.35 0-.69.07-1 .19V7c0-.56.44-1 1-1zm0 9h40c.57 0 1 .43 1 1v27c0 .56-.44 1-1 1H5c-.56 0-1-.44-1-1V16c0-.57.43-1 1-1z"/>
</svg>